<svg xmlns="http://www.w3.org/2000/svg" style="display: none;">

  <!-- Renamed Link-2 Icon -->
  <symbol id="link-icon-asdf" viewBox="0 0 24 24" stroke="blue" stroke-width="2" fill="none" stroke-linecap="round" stroke-linejoin="round">
    <path d="M15 7h3a5 5 0 0 1 5 5 5 5 0 0 1-5 5h-3m-6 0H6a5 5 0 0 1-5-5 5 5 0 0 1 5-5h3"></path>
    <line x1="8" y1="12" x2="16" y2="12"></line>
  </symbol>

  <symbol id="autolink-headings-icon" viewBox="0 0 24 24" fill="none" stroke="currentColor" stroke-width="2" stroke-linecap="round" stroke-linejoin="round" class="feather feather-link">
    <path d="M10 13a5 5 0 0 0 7.54.54l3-3a5 5 0 0 0-7.07-7.07l-1.72 1.71"></path>
    <path d="M14 11a5 5 0 0 0-7.54-.54l-3 3a5 5 0 0 0 7.07 7.07l1.71-1.71"></path>
  </symbol>
</svg>