<svg xmlns="http://www.w3.org/2000/svg" version="1.1" xmlns:xlink="http://www.w3.org/1999/xlink" xmlns:svgjs="http://svgjs.dev/svgjs" width="1024" height="1024"><svg width="1024" height="1024" viewBox="0 0 1024 1024" version="1.1" id="SvgjsSvg1034" inkscape:version="1.3.2 (091e20e, 2023-11-25)" sodipodi:docname="favicon.dev.svg" inkscape:export-filename="favicon.svg" inkscape:export-xdpi="96" inkscape:export-ydpi="96" xmlns:inkscape="http://www.inkscape.org/namespaces/inkscape" xmlns:sodipodi="http://sodipodi.sourceforge.net/DTD/sodipodi-0.dtd" xmlns="http://www.w3.org/2000/svg" xmlns:svg="http://www.w3.org/2000/svg">
  <sodipodi:namedview id="SvgjsSodipodi:namedview1033" pagecolor="#505050" bordercolor="#ffffff" borderopacity="1" inkscape:showpageshadow="0" inkscape:pageopacity="0" inkscape:pagecheckerboard="1" inkscape:deskcolor="#505050" inkscape:document-units="px" inkscape:zoom="1.1893044" inkscape:cx="430.92416" inkscape:cy="483.8963" inkscape:window-width="2800" inkscape:window-height="1728" inkscape:window-x="0" inkscape:window-y="0" inkscape:window-maximized="0" inkscape:current-layer="layer1" showguides="false"></sodipodi:namedview>
  <defs id="SvgjsDefs1032">
    <inkscape:path-effect effect="fillet_chamfer" id="SvgjsInkscape:path-effect1031" is_visible="true" lpeversion="1" nodesatellites_param="F,0,0,1,0,0,0,1 @ F,0,0,1,0,0,0,1 @ F,0,0,1,0,0,0,1 @ F,0,0,1,0,0,0,1 @ F,0,0,1,0,0,0,1 @ F,0,0,1,0,0,0,1 @ F,0,0,1,0,0,0,1 @ F,0,0,1,0,0,0,1" radius="0" unit="px" method="auto" mode="F" chamfer_steps="1" flexible="false" use_knot_distance="true" apply_no_radius="true" apply_with_radius="true" only_selected="false" hide_knots="false"></inkscape:path-effect>
    <inkscape:path-effect effect="fillet_chamfer" id="SvgjsInkscape:path-effect1030" is_visible="true" lpeversion="1" nodesatellites_param="F,0,0,1,0,0,0,1 @ F,0,0,1,0,0,0,1 @ F,0,0,1,0,0,0,1 @ F,0,0,1,0,0,0,1 @ F,0,0,1,0,0,0,1 @ F,0,0,1,0,0,0,1 @ F,0,0,1,0,0,0,1 @ F,0,0,1,0,0,0,1" radius="0" unit="px" method="auto" mode="F" chamfer_steps="1" flexible="false" use_knot_distance="true" apply_no_radius="true" apply_with_radius="true" only_selected="false" hide_knots="false"></inkscape:path-effect>
    <rect x="1203.3792" y="1241.4307" width="623.09357" height="461.37463" id="SvgjsRect1029"></rect>
  </defs>
  <g inkscape:groupmode="layer" id="SvgjsG1028" inkscape:label="LayerBack">
    <rect style="font-variation-settings:normal;display:none;opacity:1;fill:#000000;fill-opacity:1;stroke:none;stroke-width:32;stroke-linecap:round;stroke-linejoin:round;stroke-miterlimit:0;stroke-dasharray:none;stroke-dashoffset:0;stroke-opacity:1;stop-color:#000000;stop-opacity:1" id="SvgjsRect1027" width="1024" height="1024" x="0" y="-2.8421709e-14" inkscape:label="BaseBase1"></rect>
    <path style="font-variation-settings:normal;display:none;opacity:1;fill:#000000;fill-opacity:1;stroke:#ffffff;stroke-width:33.0323;stroke-linecap:round;stroke-linejoin:round;stroke-miterlimit:0;stroke-dasharray:none;stroke-dashoffset:0;stroke-opacity:1;stop-color:#000000;stop-opacity:1" id="SvgjsPath1026" width="1024" height="1024.0001" x="0" y="-2.8421709e-14" inkscape:label="BaseBase2" sodipodi:type="rect" rx="132.12904" ry="132.12904" transform="matrix(0.96874996,0,0,0.9687499,16.00002,16.000018)" d="M 132.12904,0 H 891.87096 C 965.07045,0 1024,58.929553 1024,132.12904 v 759.74204 c 0,73.19949 -58.92955,132.12902 -132.12904,132.12902 H 132.12904 C 58.929553,1024.0001 0,965.07057 0,891.87108 V 132.12904 C 0,58.929553 58.929553,0 132.12904,0 Z" inkscape:path-effect="#path-effect8"></path>
    <path style="font-variation-settings:normal;display:inline;opacity:1;fill:#000000;fill-opacity:1;stroke:#000000;stroke-width:33.0323;stroke-linecap:round;stroke-linejoin:round;stroke-miterlimit:0;stroke-dasharray:none;stroke-dashoffset:0;stroke-opacity:1;stop-color:#000000;stop-opacity:1" id="SvgjsPath1025" width="1024" height="1024.0001" x="0" y="-2.8421709e-14" inkscape:label="BaseBase3" sodipodi:type="rect" rx="132.12904" ry="132.12904" transform="matrix(0.96874996,0,0,0.9687499,16.00002,16.000018)" d="M 132.12904,0 H 891.87096 C 965.07045,0 1024,58.929553 1024,132.12904 v 759.74204 c 0,73.19949 -58.92955,132.12902 -132.12904,132.12902 H 132.12904 C 58.929553,1024.0001 0,965.07057 0,891.87108 V 132.12904 C 0,58.929553 58.929553,0 132.12904,0 Z" inkscape:path-effect="#path-effect2"></path>
  </g>
  <g inkscape:label="LayerText" inkscape:groupmode="layer" id="SvgjsG1024">
    <text xml:space="preserve" style="font-style:normal;font-variant:normal;font-weight:bold;font-stretch:normal;font-size:1152px;font-family:'Ubuntu Mono';-inkscape-font-specification:'Ubuntu Mono Bold';display:none;fill:#ffffff;stroke-width:0" x="514.30402" y="869.12" id="SvgjsText1023" inkscape:label="TextUbuntu-C" svgjs:data="{&quot;leading&quot;:&quot;1.3&quot;}"><tspan sodipodi:role="line" id="SvgjsTspan1022" style="font-size:1152px;text-align:center;text-anchor:middle;stroke-width:0" x="0" y="0">C</tspan></text>
    <text xml:space="preserve" style="font-style:normal;font-variant:normal;font-weight:bold;font-stretch:normal;font-size:1152px;font-family:'Ubuntu Mono';-inkscape-font-specification:'Ubuntu Mono Bold';display:none;fill:#ffffff;stroke-width:0" x="459.44235" y="869.12" id="SvgjsText1021" inkscape:label="TextUbuntu-C" svgjs:data="{&quot;leading&quot;:&quot;1.3&quot;}"><tspan sodipodi:role="line" id="SvgjsTspan1020" style="font-size:1152px;text-align:center;text-anchor:middle;stroke-width:0" x="0" y="0">C</tspan></text>
    <path style="font-weight:bold;font-size:1152px;font-family:'Ubuntu Mono';-inkscape-font-specification:'Ubuntu Mono Bold';text-align:center;text-anchor:middle;fill:#ff3333;stroke-width:0;fill-opacity:1" d="m 512.43435,884.096 q -150.912,0 -230.4,-96.768 -79.488,-96.768 -79.488,-275.328 0,-88.704 24.192,-157.824 24.192,-69.12 66.816,-116.352 43.776,-48.384 102.528,-72.576 59.904,-25.344 130.176,-25.344 38.016,0 67.968,6.912 31.104,5.76 54.144,13.824 23.04,8.064 38.016,17.28 16.128,9.216 24.192,13.824 l -36.864,112.896 q -26.496,-17.28 -64.512,-28.8 -36.864,-12.672 -85.248,-12.672 -33.408,0 -65.664,12.672 -31.104,11.52 -56.448,40.32 -24.192,27.648 -40.32,74.88 -14.976,47.232 -14.976,117.504 0,122.112 41.472,187.776 42.624,64.512 138.24,64.512 55.296,0 91.008,-12.672 36.864,-12.672 58.752,-25.344 l 35.712,111.744 q -29.952,18.432 -81.792,34.56 -50.688,14.976 -117.504,14.976 z" id="SvgjsPath1019" inkscape:label="TextUbuntu-C-FLAT" aria-label="C"></path>
  </g>
</svg><style>@media (prefers-color-scheme: light) { :root { filter: none; } }
@media (prefers-color-scheme: dark) { :root { filter: none; } }
</style></svg>